<?xml version="1.0" encoding="utf-8"?>
<!-- Generator: Adobe Illustrator 21.0.2, SVG Export Plug-In . SVG Version: 6.00 Build 0)  -->
<svg version="1.1" id="Layer_1" xmlns="http://www.w3.org/2000/svg" xmlns:xlink="http://www.w3.org/1999/xlink" x="0px" y="0px"
	 viewBox="0 0 510.2 327.2" style="enable-background:new 0 0 510.2 327.2;" xml:space="preserve">
<style type="text/css">
	.st0{opacity:7.000000e-02;}
	.st1{fill:#393938;}
	.st2{fill:#B27B56;}
	.st3{fill:#FFB921;}
	.st4{fill:#02909B;}
	.st5{fill:#41C1DF;}
	.st6{opacity:5.000000e-02;}
	.st7{opacity:0.15;fill:#FFFFFF;}
	.st8{fill:#2A5F93;}
	.st9{opacity:0.3;fill:#FFFFFF;}
	.st10{opacity:0.1;}
	.st11{fill:#86674D;}
	.st12{opacity:0.15;}
	.st13{opacity:0.1;fill:#FFB921;}
	.st14{fill:#EDCFC0;}
	.st15{opacity:0.2;}
	.st16{fill:#FFFFFF;}
	.st17{fill:#FDAB47;}
	.st18{fill:#FC940E;}
	.st19{fill:#FFF5B0;}
	.st20{fill:#FFD715;}
	.st21{opacity:0.4;fill:#FFFFFF;}
	.st22{fill:#FCEA9F;}
	.st23{fill:#C99C77;}
	.st24{fill:#CCA283;}
	.st25{fill:#D3AA89;}
	.st26{opacity:0.8;}
	.st27{fill:#9FC8C4;}
	.st28{fill:#22557F;}
	.st29{fill:#E271A0;}
	.st30{fill:#F7F0E7;}
	.st31{fill:#32C3C6;}
	.st32{clip-path:url(#SVGID_2_);fill:#C2EDF9;}
	.st33{clip-path:url(#SVGID_2_);}
	.st34{fill:#759596;}
	.st35{clip-path:url(#SVGID_2_);fill:#386850;}
	.st36{clip-path:url(#SVGID_2_);fill:#1877B7;}
	.st37{fill:#EFEFEA;}
	.st38{fill:#32AD28;}
	.st39{fill:#00B1CA;}
	.st40{fill:#0BDBE0;}
	.st41{fill:#EA965E;}
	.st42{fill:#C1683D;}
	.st43{fill:#6FA528;}
	.st44{opacity:0.1;fill:#231F20;}
	.st45{fill:#578C13;}
	.st46{fill:#E86097;}
	.st47{fill:#EA7DA2;}
</style>
<g>
	<ellipse class="st0" cx="451.7" cy="321.8" rx="58.5" ry="3.1"/>
	<g>
		<g>
			<path class="st1" d="M468,279.9V59.3c0-24-19.5-43.6-43.6-43.6c-24,0-43.6,19.5-43.6,43.6v11.2h-3.5V59.3
				c0-26,21.1-47.1,47.1-47.1c26,0,47.1,21.1,47.1,47.1v220.6H468z"/>
			<g>
				<rect x="467.3" y="207.7" class="st1" width="5.2" height="112.1"/>
				<rect x="470" y="207.7" class="st1" width="2.4" height="112.1"/>
				<path class="st2" d="M492.9,315.5h-46.1c-3.2,0-5.8,2.6-5.8,5.8l0,0h57.7l0,0C498.7,318.1,496.1,315.5,492.9,315.5z"/>
			</g>
			<g>
				<g>
					<path class="st3" d="M405,69.6c-0.6-2.8-1.4-5.6-2.4-8.3c-15.7,0-31.3,0-47,0c-1,2.7-1.8,5.4-2.4,8.3H405z"/>
					<path class="st3" d="M352.1,77.8h54.1c-0.2-2.8-0.6-5.5-1.1-8.3h-51.8C352.6,72.3,352.3,75,352.1,77.8z"/>
					<path class="st3" d="M352.1,86.1h54.1c0.2-2.8,0.2-5.5,0-8.3h-54.1C351.9,80.6,351.9,83.3,352.1,86.1z"/>
					<path class="st3" d="M353.2,94.4H405c0.6-2.7,1-5.5,1.1-8.3h-54.1C352.3,88.9,352.6,91.6,353.2,94.4z"/>
					<path class="st3" d="M353.2,94.4c0.6,2.8,1.4,5.6,2.4,8.3c15.7,0,31.3,0,47,0c1-2.7,1.8-5.4,2.4-8.3H353.2z"/>
				</g>
			</g>
			<path class="st3" d="M403.3,63.4c-0.2-0.7-0.5-1.4-0.7-2.1c-15.7,0-31.3,0-47,0c-1,2.7-1.8,5.4-2.4,8.3c-0.6,2.7-1,5.5-1.1,8.3
				c-0.1,1.5-0.1,3-0.1,4.6C374,82.1,393.2,74.5,403.3,63.4z"/>
		</g>
	</g>
	<ellipse class="st0" cx="216.9" cy="321.8" rx="188.2" ry="5.5"/>
	<g>
		<g>
			<g>
				<polygon class="st4" points="407.8,290.5 40.9,290.5 13.7,211 435.1,211 				"/>
				<path class="st5" d="M418.3,275.3h-388l10.5-87.6c2.2-18,17.4-31.6,35.6-31.6h295.7c18.1,0,33.4,13.6,35.6,31.6L418.3,275.3z"/>
				<path class="st6" d="M410.6,210.7c-18.1,10-65.7,17.1-121.5,17.1c-23.6,0-45.6-1.3-64.7-3.5c-19,2.2-41.1,3.5-64.7,3.5
					c-55.9,0-103.5-7.1-121.5-17.1l-7.8,64.6h194l0,0h194L410.6,210.7z"/>
				<path class="st7" d="M74.4,162.9h300c14,0,26.3,7.9,32.4,19.6c-4.2-15.3-18.2-26.3-34.5-26.3H76.5c-16.3,0-30.3,11-34.5,26.3
					C48,170.7,60.4,162.9,74.4,162.9z"/>
				<g>
					<g>
						<path class="st8" d="M218.2,235.5H52.9c-3.1,0-5.5,2.5-5.5,5.5v12.1c0,3.1,2.5,5.5,5.5,5.5h165.3c3.1,0,5.5-2.5,5.5-5.5V241
							C223.8,238,221.3,235.5,218.2,235.5z"/>
						<path class="st8" d="M395.8,235.5H230.5c-3.1,0-5.5,2.5-5.5,5.5v12.1c0,3.1,2.5,5.5,5.5,5.5h165.3c3.1,0,5.5-2.5,5.5-5.5V241
							C401.3,238,398.9,235.5,395.8,235.5z"/>
					</g>
					<path class="st9" d="M51.6,236.3c19.4,2.3,49.8,3.9,83.9,3.9c34.1,0,64.5-1.5,83.9-3.9c-1-0.5-2.1-0.8-3.4-0.8H55
						C53.8,235.5,52.7,235.8,51.6,236.3z"/>
					<path class="st9" d="M228.6,236.3c19.4,2.3,49.8,3.9,83.9,3.9c34.1,0,64.5-1.5,83.9-3.9c-1-0.5-2.1-0.8-3.4-0.8H231.9
						C230.7,235.5,229.6,235.8,228.6,236.3z"/>
				</g>
				<path class="st8" d="M440.8,211h-15.1c-3.2,0-6.2,2-7.4,5l-17.8,44.2H48.3L30.5,216c-1.2-3-4.1-5-7.4-5H8
					c-5.6,0-9.5,5.7-7.4,10.9l27.7,68.6h392.2l27.7-68.6C450.2,216.7,446.4,211,440.8,211z"/>
				<g class="st10">
					<path d="M405.6,282.1H43.2c-7.5,0-14.7-2.2-20.7-6l5.8,14.4h392.2l5.8-14.4C420.3,280,413.1,282.1,405.6,282.1z"/>
				</g>
				<rect x="37.4" y="290.5" class="st1" width="374" height="10.6"/>
				<g>
					<g>
						<polygon class="st1" points="67.2,301.2 49.5,301.2 53,321.3 63.7,321.3 						"/>
						<polygon class="st1" points="399.3,301.2 381.5,301.2 385,321.3 395.7,321.3 						"/>
					</g>
				</g>
				<g>
					<polygon class="st11" points="49.5,301.2 50.4,306.8 66.3,306.8 67.2,301.2 					"/>
					<polygon class="st10" points="49.5,301.2 50.4,306.8 66.3,306.8 67.2,301.2 					"/>
					<polygon class="st11" points="381.5,301.2 382.5,306.8 398.3,306.8 399.3,301.2 					"/>
					<polygon class="st10" points="381.5,301.2 382.5,306.8 398.3,306.8 399.3,301.2 					"/>
				</g>
			</g>
		</g>
		<g>
			<g>
				<g>
					<path class="st3" d="M104.3,236c-15.1-3.2-30.1-3.2-45.2,0c-1.3,0.3-2.3-1.7-2-3.8c2.1-12.1,2.1-24.2,0-36.2
						c-0.4-2.1,0.7-4.1,2-3.8c15.5,3.2,30.6,3.1,45.3,0c1.3-0.3,2.3,1.8,1.9,3.9c-2.4,12.4-2.4,24.4,0,36
						C106.7,234.2,105.6,236.3,104.3,236z"/>
				</g>
				<g class="st12">
					<path class="st3" d="M57.2,232.2c0.2-1,0.3-1.9,0.5-2.9c20.4-2.7,37.7-17.1,46.4-37c0.1,0,0.2,0,0.3-0.1
						c-14.6,3.1-29.7,3.1-45.3,0c-1.3-0.3-2.3,1.7-2,3.8C59.3,208,59.3,220.1,57.2,232.2z"/>
				</g>
			</g>
		</g>
		<g>
			<g>
				<g>
					<path class="st3" d="M320,236c-14.3-2.8-28.6-2.8-42.9,0c-1.2,0.2-2.2-1.5-1.9-3.3c2-10.6,2-21.1,0-31.6
						c-0.3-1.8,0.6-3.6,1.9-3.3c14.8,2.8,29.1,2.7,43,0c1.2-0.2,2.2,1.6,1.8,3.4c-2.3,10.8-2.3,21.3,0,31.5
						C322.2,234.4,321.2,236.2,320,236z"/>
				</g>
				<path class="st13" d="M275.2,232.7c0.2-0.8,0.3-1.7,0.4-2.5c19.4-2.4,35.7-14.9,44.1-32.4c0.1,0,0.2,0,0.3-0.1
					c-13.9,2.7-28.2,2.7-43,0c-1.2-0.2-2.2,1.5-1.9,3.3C277.2,211.5,277.2,222.1,275.2,232.7z"/>
			</g>
		</g>
		<g>
			<g>
				<path class="st14" d="M141.6,236c-13.8-2.7-27.5-2.7-41.3,0c-1.2,0.2-2.1-1.5-1.8-3.2c1.9-10.2,1.9-20.4,0-30.5
					c-0.3-1.8,0.6-3.5,1.8-3.2c14.2,2.7,27.9,2.6,41.3,0c1.2-0.2,2.1,1.5,1.8,3.3c-2.2,10.4-2.2,20.6,0,30.4
					C143.8,234.5,142.8,236.2,141.6,236z"/>
			</g>
			<g class="st15">
				<path class="st16" d="M98.6,232.8c0.2-0.8,0.3-1.6,0.4-2.4c18.6-2.3,34.4-14.4,42.4-31.3c0.1,0,0.2,0,0.3-0.1
					c-13.4,2.6-27.1,2.6-41.3,0c-1.2-0.2-2.1,1.5-1.8,3.2C100.5,212.4,100.5,222.6,98.6,232.8z"/>
			</g>
		</g>
	</g>
	<g>
		<g>
			<g>
				<g>
					<polygon class="st17" points="436.3,171 419.4,171 420.5,169.5 435.2,169.5 					"/>
					<rect x="427.6" y="167.2" width="0.4" height="2.3"/>
					<rect x="417.9" y="170.8" class="st18" width="19.9" height="26.3"/>
					<path class="st6" d="M432.8,195.7H423c-2.3,0-4.3-1.5-5.1-3.5v5h19.9v-5C437,194.2,435.1,195.7,432.8,195.7z"/>
				</g>
			</g>
			<g>
				<g>
					<g>
						<path class="st19" d="M446,197.2c-5.1,0-7.7,0-12.8,0c-3.4-4.1-3.4-7.7,0-11.8c5.1,0,7.7,0,12.8,0
							C449.4,189.5,449.4,193.1,446,197.2z"/>
					</g>
					<path class="st20" d="M443.8,195.4h-8.4c-0.5,0-0.9-0.4-0.9-0.9v-9.2h10.1v9.2C444.7,195.1,444.3,195.4,443.8,195.4z"/>
					<path class="st6" d="M442,194.7h-4.8c-1.1,0-2.1-0.6-2.6-1.4v0.8c0,0.7,0.6,1.3,1.3,1.3h7.5c0.7,0,1.3-0.6,1.3-1.3v-0.8
						C444.1,194.2,443.2,194.7,442,194.7z"/>
					<rect x="439.4" y="183.1" width="0.4" height="2.3"/>
					<path class="st21" d="M434.6,185.4C434.6,185.4,434.6,185.4,434.6,185.4c0,0.5,2.2,0.9,5,0.9c2.8,0,5.1-0.4,5.1-0.9
						c0,0,0,0,0-0.1H434.6z"/>
					<path class="st22" d="M442.7,195.4h-6.1c-2.5,0-4.6-1.4-5.8-3.4c0.2,1.7,1,3.3,2.5,5.1c5.1,0,7.7,0,12.8,0
						c1.5-1.8,2.3-3.4,2.5-5.1C447.3,194.1,445.2,195.4,442.7,195.4z"/>
				</g>
			</g>
		</g>
		<g>
			<g>
				<g>
					<rect x="423.2" y="230.9" class="st23" width="38.4" height="2.9"/>
					<rect x="423.2" y="291.2" class="st23" width="38.4" height="2.9"/>
					<g>
						<polygon class="st24" points="467,202.8 406.2,321.3 417.5,321.3 478.4,202.8 						"/>
						<polygon class="st25" points="406.4,202.8 467.3,321.3 478.6,321.3 417.7,202.8 						"/>
					</g>
					<polygon class="st23" points="442.4,256.6 440.3,260.7 442.4,264.8 444.4,260.7 					"/>
					<g class="st10">
						<polygon points="417.7,202.8 406.4,202.8 410.3,210.4 421.7,210.4 						"/>
						<polygon points="474.4,210.4 478.4,202.8 467,202.8 463.1,210.4 						"/>
					</g>
					<rect x="404.1" y="202.8" class="st25" width="76.2" height="1.7"/>
					<g class="st26">
						<rect x="380.8" y="197.1" class="st27" width="123.2" height="9"/>
						<rect x="380.8" y="197.1" class="st28" width="123.2" height="9"/>
					</g>
				</g>
			</g>
		</g>
	</g>
	<g>
		<g>
			<polygon class="st29" points="132.6,48.4 132.6,113.7 132.6,113.8 238.2,113.8 238.2,113.7 238.2,48.4 238.2,48.3 132.6,48.3 			
				"/>
			<rect x="133.9" class="st29" width="103.1" height="40.1"/>
			<polygon class="st29" points="316,0.1 245.7,0.1 245.6,0.1 245.6,113.7 245.7,113.7 316,113.7 316.1,113.7 316.1,0.1 			"/>
		</g>
		<g>
			<g>
				<g>
					<g>
						
							<rect x="152.7" y="28.2" transform="matrix(-1.836970e-16 1 -1 -1.836970e-16 266.4719 -104.3946)" class="st2" width="65.5" height="105.6"/>
						
							<rect x="140.7" y="56.4" transform="matrix(-1 -1.224647e-16 1.224647e-16 -1 370.8668 162.077)" class="st11" width="89.4" height="49.3"/>
						
							<rect x="143.1" y="58.7" transform="matrix(-1 -1.224647e-16 1.224647e-16 -1 370.8666 162.077)" class="st30" width="84.7" height="44.7"/>
						
							<rect x="148.8" y="64.5" transform="matrix(-1 -1.224647e-16 1.224647e-16 -1 370.8669 162.077)" class="st31" width="73.2" height="33.1"/>
					</g>
				</g>
				<g>
					<defs>
						
							<rect id="SVGID_1_" x="148.8" y="64.5" transform="matrix(-1 -1.224647e-16 1.224647e-16 -1 370.8669 162.077)" width="73.2" height="33.1"/>
					</defs>
					<clipPath id="SVGID_2_">
						<use xlink:href="#SVGID_1_"  style="overflow:visible;"/>
					</clipPath>
					
						<rect x="148.8" y="64.5" transform="matrix(-1 -1.224647e-16 1.224647e-16 -1 370.8669 162.077)" class="st32" width="73.2" height="33.1"/>
					<g class="st33">
						<path class="st34" d="M172.5,96.9c-0.8,0-1.2-0.4-0.8-0.9l15.2-19c0.8-0.9,2-0.9,2.7,0l15.2,19c0.4,0.5,0,0.9-0.8,0.9H172.5z"
							/>
						<path class="st34" d="M202.8,91.3c-0.7,0-1-0.4-0.7-0.9l13.4-19.8c0.3-0.5,0.9-0.5,1.2,0L230,90.4c0.3,0.5,0,0.9-0.7,0.9
							H202.8z"/>
						<path class="st34" d="M159.4,92.6c-0.7,0-0.9-0.4-0.4-0.9l16.3-17.3c0.5-0.5,1.2-0.5,1.7,0l16.3,17.3c0.5,0.5,0.3,0.9-0.4,0.9
							H159.4z"/>
						<path class="st34" d="M189.6,86.5c-0.6,0-0.7-0.4-0.3-0.8l13.2-15.8c0.4-0.5,1-0.5,1.4,0l13.2,15.8c0.4,0.5,0.2,0.8-0.3,0.8
							H189.6z"/>
					</g>
					<path class="st35" d="M222,91.6l-68.3-0.1c20.2-5.2,41.9-9.2,68.3-9.1V91.6z"/>
					<rect x="148.6" y="90.9" class="st36" width="77.1" height="8.6"/>
				</g>
			</g>
			<g>
				
					<rect x="165.4" y="-31.5" transform="matrix(-1.836970e-16 1 -1 -1.836970e-16 205.497 -165.3698)" class="st1" width="40.1" height="103.1"/>
				<rect x="138.1" y="4.2" class="st37" width="94.6" height="31.7"/>
				<g>
					<polygon class="st38" points="183.6,11.4 205.7,28.8 218.7,11.4 					"/>
					<polygon class="st39" points="145.2,11.4 145.2,28.8 166.8,11.4 					"/>
					<polygon class="st39" points="218.7,11.4 225.6,28.8 225.6,11.4 					"/>
					<polygon class="st4" points="166.8,11.4 176.8,28.8 183.6,11.4 					"/>
					<polygon class="st40" points="145.2,28.8 176.8,28.8 166.8,11.4 					"/>
					<polygon class="st4" points="205.7,28.8 225.6,28.8 218.7,11.4 					"/>
					<polygon class="st39" points="176.8,28.8 205.7,28.8 183.6,11.4 					"/>
					<polygon class="st29" points="176.8,28.8 205.7,28.8 183.6,11.4 					"/>
				</g>
				<polygon class="st6" points="145.2,11.4 138.1,4.2 232.7,4.2 225.6,11.4 				"/>
				<polygon class="st6" points="145.2,28.8 138.1,35.9 232.7,35.9 225.6,28.8 				"/>
			</g>
		</g>
		<g>
			<g>
				<rect x="245.6" y="0.1" class="st41" width="70.4" height="113.5"/>
				
					<rect x="232.8" y="30.4" transform="matrix(-1.836970e-16 1 -1 -1.836970e-16 337.7614 -223.9665)" class="st42" width="96.1" height="53"/>
				
					<rect x="235.3" y="32.9" transform="matrix(-1.836970e-16 1 -1 -1.836970e-16 337.7612 -223.9665)" class="st30" width="91.1" height="48"/>
				
					<rect x="241.5" y="39.1" transform="matrix(-1.836970e-16 1 -1 -1.836970e-16 337.7614 -223.9665)" class="st3" width="78.7" height="35.6"/>
				<g class="st6">
					<polygon points="307.4,104.9 254.4,104.9 245.7,113.7 316,113.7 					"/>
				</g>
				<g class="st6">
					<polygon points="307.4,8.9 254.4,8.9 245.7,0.1 316,0.1 					"/>
				</g>
				<g>
					<g>
						<g>
							<path class="st43" d="M274.9,71.6c1.3,10.7,3.2,13.7,3.2,13.7s3.2-4.6,1.6-16.2c-1.2-8.3-8.8-21.2-8.8-21.2
								C270.7,48.2,274,63.7,274.9,71.6z"/>
						</g>
						<path class="st44" d="M277.2,75.6c0.3,3.5,1.9,1.8,3,0c-0.1,6.8-2,9.7-2,9.7s-1.9-3-3.2-13.7c-0.3-2.4-0.8-5.5-1.3-8.6
							C275.2,67.4,276.9,72.7,277.2,75.6z"/>
					</g>
					<g>
						<path class="st45" d="M275.3,39.6c0,0,0.2,0.2,0.7,0.5c0.4,0.3,1,0.8,1.7,1.4c0.7,0.6,1.4,1.4,2.2,2.3c0.7,0.9,1.6,2,2.2,3.2
							c0.4,0.6,0.7,1.2,1,1.8c0.3,0.6,0.7,1.3,0.9,2c0.5,1.3,1.1,2.8,1.3,4.2c0.2,0.7,0.4,1.5,0.5,2.2c0.1,0.7,0.2,1.5,0.2,2.2
							c0.2,1.5,0.1,3,0.1,4.5c0.1,1.5-0.3,2.9-0.4,4.4c-0.1,1.5-0.6,2.8-0.9,4.1c-0.4,1.3-0.7,2.6-1.3,3.7c-0.5,1.1-1,2.2-1.5,3.2
							c-0.4,1-1.1,1.8-1.5,2.6c-0.5,0.8-0.9,1.4-1.3,2c-0.7,1.1-1.2,1.7-1.2,1.7l-0.2-0.1c0,0,0.2-0.7,0.6-1.9
							c0.2-0.6,0.5-1.3,0.8-2.1c0.3-0.8,0.7-1.7,1-2.8c0.3-1,0.7-2.1,1.1-3.3c0.4-1.2,0.8-2.4,1.1-3.7c0.4-1.3,0.9-2.6,1.1-4
							c0.2-1.4,0.7-2.8,0.7-4.2c0.1-1.5,0.3-2.9,0.2-4.3c0-0.7-0.1-1.5-0.1-2.2c-0.1-0.7-0.2-1.4-0.4-2.2c-0.2-1.4-0.7-2.8-1.1-4.1
							c-0.2-0.7-0.5-1.3-0.8-1.9c-0.2-0.6-0.5-1.2-0.9-1.8c-0.6-1.2-1.3-2.2-2-3.1c-0.7-0.9-1.4-1.7-2-2.3c-0.6-0.6-1.2-1.1-1.6-1.4
							c-0.4-0.3-0.6-0.5-0.6-0.5L275.3,39.6z"/>
						<g>
							<g>
								<g>
									<g>
										<path class="st46" d="M279.6,39.8c1.1,4.2,0.3,5.8,0.3,5.8s-2.3,0.6-4.3-2.4c-2-3-2.7-9.5-2.7-9.5S278.4,35.6,279.6,39.8z
											"/>
									</g>
								</g>
							</g>
							<g>
								<g>
									<path class="st47" d="M274.8,45.9c2.7,1.9,5.5,1,6.8,0.3c0.6-0.3,0.9-0.9,0.7-1.5c-0.3-0.9-1-2.3-2.8-3.6
										c-2.9-2.1-7-5.6-7-5.6S270.9,43.2,274.8,45.9z"/>
								</g>
							</g>
							<g>
								<g>
									<path class="st29" d="M282.7,40.3c1,2.9,0.1,4.7-0.7,5.6c-0.5,0.5-1.4,0.5-1.9,0c-0.7-0.8-1.7-2.1-2.4-4.2
										c-1.2-3.6-3.4-9-3.4-9S281.2,35.5,282.7,40.3z"/>
								</g>
							</g>
						</g>
					</g>
				</g>
			</g>
		</g>
		<rect x="133.9" y="40.2" class="st10" width="103.1" height="3.4"/>
		<rect x="132.6" y="113.8" class="st10" width="105.5" height="3.3"/>
		<rect x="245.7" y="113.8" class="st10" width="70.4" height="3.3"/>
	</g>
</g>
</svg>
